# xmcd
# Copyright (C) 1995-1998 Ti Kan
#
# Track frame offsets:
#       150
#       3822
#       30870
#       53353
#       78725
#       105837
#       128442
#       149473
#       171725
#       199299
#       214966
#       243696
#       269429
#       293215
#       302284
#
# Disc length: 4307 seconds
#
# Revision: 0
# Processed by: cddbd v1.5.2PL0 Copyright (c) Steve Scherf et al.
# Submitted via: CD-Import v1.0
#
DISCID=cb10d10f
DTITLE=Herr Der Ringe - Herr Der Ringe T1
DYEAR=03
DGENRE=
TTITLE0=Anmodi Hörspiel
TTITLE1=Hdr 0101
TTITLE2=Hdr 0102
TTITLE3=Hdr 0103
TTITLE4=Hdr 0104
TTITLE5=Hdr 0105
TTITLE6=Hdr 0106
TTITLE7=Hdr 0107
TTITLE8=Hdr 0108
TTITLE9=Hdr 0109
TTITLE10=Hdr 0110
TTITLE11=Hdr 0111
TTITLE12=Hdr 0112
TTITLE13=Hdr 0113
TTITLE14=Hdr 0114
EXTD=
EXTT0=
EXTT1=
EXTT2=
EXTT3=
EXTT4=
EXTT5=
EXTT6=
EXTT7=
EXTT8=
EXTT9=
EXTT10=
EXTT11=
EXTT12=
EXTT13=
EXTT14=
PLAYORDER=
